Coordinates
version=1
nRows=19
nColumns=36
inDegrees=yes

Units are S.I. units (second, meters, Newtons, ...)
If the header above contains a line with 'inDegrees', this indicates whether rotational values are in degrees (yes) or radians (no).

endheader
time	pelvis_tilt	pelvis_list	pelvis_rotation	pelvis_tx	pelvis_ty	pelvis_tz	hip_flexion_r	hip_adduction_r	hip_rotation_r	knee_angle_r	knee_angle_r_beta	ankle_angle_r	subtalar_angle_r	mtp_angle_r	hip_flexion_l	hip_adduction_l	hip_rotation_l	knee_angle_l	knee_angle_l_beta	ankle_angle_l	subtalar_angle_l	mtp_angle_l	lumbar_extension	lumbar_bending	lumbar_rotation	arm_flex_r	arm_add_r	arm_rot_r	elbow_flex_r	pro_sup_r	arm_flex_l	arm_add_l	arm_rot_l	elbow_flex_l	pro_sup_l
      0.81000000	     -6.27655494	      0.07528154	     -3.87949114	      0.78371424	      1.02452994	     -0.32619050	     -3.01913860	     -3.23152897	     -7.06934475	     37.46197932	      0.65383488	    -13.59802925	    -10.03567335	     -7.01743821	     22.86115931	     -2.13692469	     -7.35171450	     14.10284276	      0.24614104	     -4.18931796	     -4.90139445	     -7.01743821	     -7.87024901	    -15.53856704	      4.09616650	      0.02567270	     -5.57881508	      7.74671959	     41.08537489	    109.77511241	     -1.80635474	    -13.93826894	     -8.36227473	     34.55167871	    108.34916057
      0.82000000	     -6.31683003	      0.30840380	     -4.53463369	      0.79431483	      1.02606653	     -0.32610670	     -1.35843757	     -3.82818988	     -6.61991543	     40.37876424	      0.70474238	    -15.30385542	    -10.94800752	     -7.02320974	     21.92050268	     -1.94065844	     -7.78276071	     13.68622152	      0.23886963	     -3.57865077	     -5.19345519	     -7.02320974	     -7.62793083	    -16.61390128	      3.93317040	     -0.21845267	     -5.61208776	      8.57331498	     41.22257102	    109.79864584	     -1.24726021	    -14.17844313	     -8.58539835	     34.77250121	    108.35467792
      0.83000000	     -6.55406784	      0.38189584	     -5.18005903	      0.80448638	      1.02731877	     -0.32578747	      0.53076914	     -4.06629704	     -6.00635763	     43.12317114	      0.75264132	    -17.56532949	    -13.20539657	     -7.03709578	     21.31460766	     -1.95871216	     -8.16061556	     13.45177015	      0.23477768	     -3.41108181	     -5.61512236	     -7.03709578	     -7.15122875	    -17.48032644	      3.57274713	     -0.22217533	     -5.75382807	     10.06759099	     41.08552531	    109.77143461	     -0.87778553	    -14.42458312	     -9.03229402	     35.07473433	    108.37132579
      0.84000000	     -6.60081545	      0.51038871	     -5.76784696	      0.81459939	      1.02879080	     -0.32557844	      2.16636095	     -4.39100004	     -5.58682508	     45.69247550	      0.79748414	    -18.94488835	    -14.75070654	     -7.04927312	     20.44177553	     -1.86415279	     -8.46404471	     13.08107481	      0.22830783	     -3.03134323	     -5.85299182	     -7.04927312	     -6.92412626	    -18.37836989	      3.22116312	     -0.29706450	     -5.85191394	     11.13232224	     41.15288921	    109.73775151	     -0.39818540	    -14.65719158	     -9.44953946	     35.41576143	    108.39216193
      0.85000000	     -6.54594598	      0.64042727	     -6.29769777	      0.82459741	      1.03038655	     -0.32539459	      3.64688156	     -4.71210528	     -5.30324059	     48.07640670	      0.83909159	    -19.42119214	    -15.97826719	     -7.05474450	     19.44682816	     -1.72368787	     -8.69281151	     12.65536025	      0.22087770	     -2.48800167	     -6.00091116	     -7.05474450	     -6.83516190	    -19.26056965	      2.88905100	     -0.44116723	     -5.92025837	     11.78455750	     41.36586004	    109.75733647	      0.21469837	    -14.93297976	     -9.69576242	     35.66886409	    108.39953497
      0.86000000	     -6.64380425	      0.62540401	     -6.77318522	      0.83426740	      1.03182497	     -0.32507729	      5.23834570	     -4.74796616	     -5.02237884	     50.20692168	      0.87627609	    -19.89855521	    -17.94317503	     -7.07261901	     18.69064260	     -1.76082910	     -8.86200403	     12.34000556	      0.21537373	     -2.31468646	     -6.23471736	     -7.07261901	     -6.61076698	    -19.95349372	      2.32609845	     -0.36411335	     -6.03300174	     12.91958897	     41.34146443	    109.68271562	      0.61882880	    -15.18232721	    -10.35085841	     36.12763799	    108.42952945
      0.87000000	     -6.57119466	      0.63009039	     -7.18803920	      0.84400520	      1.03351893	     -0.32487646	      6.56107239	     -4.82148568	     -4.86011886	     52.09971916	      0.90931164	    -19.09050779	    -19.29398962	     -7.07695759	     17.68077631	     -1.70563594	     -8.98317906	     11.88341405	      0.20740470	     -1.88816185	     -6.23203778	     -7.07695759	     -6.57193402	    -20.64399090	      1.91047601	     -0.50547744	     -6.08785155	     13.29034242	     41.61671430	    109.69697911	      1.26053958	    -15.45199267	    -10.56396451	     36.37019076	    108.43572268
      0.88000000	     -6.56516623	      0.50848785	     -7.57754702	      0.85352902	      1.03516191	     -0.32459382	      7.90875315	     -4.71226189	     -4.77390629	     53.73133399	      0.93778869	    -18.09918046	    -20.55661933	     -7.08093962	     16.76387960	     -1.80350423	     -9.11595470	     11.45619694	      0.19994836	     -1.60922892	     -6.22312444	     -7.08093962	     -6.51167046	    -21.13626540	      1.46418464	     -0.60790466	     -6.14012534	     13.60839744	     41.82548548	    109.70679077	      1.88810629	    -15.70397708	    -10.80386555	     36.65679695	    108.43717329
      0.89000000	     -6.58067839	      0.36979295	     -7.93676763	      0.86299892	      1.03677966	     -0.32436982	      9.22847204	     -4.55011977	     -4.71796610	     55.10501525	      0.96176395	    -16.87503296	    -21.72270308	     -7.08498746	     15.85249657	     -1.89340682	     -9.24996738	     10.98310130	      0.19169128	     -1.32781633	     -6.21049556	     -7.08498746	     -6.41415895	    -21.58288769	      1.01667504	     -0.72920123	     -6.21316199	     13.87299998	     42.01946760	    109.70838583	      2.49168118	    -15.93346676	    -11.09830900	     36.98192674	    108.43138931
      0.90000000	     -6.63439978	      0.26434708	     -8.28472290	      0.87239681	      1.03828222	     -0.32422838	     10.58079931	     -4.41192594	     -4.67974416	     56.28818964	      0.98241424	    -15.40971000	    -22.31647496	     -7.09508243	     14.97588017	     -1.93439282	     -9.41917552	     10.46633785	      0.18267206	     -1.14347885	     -6.20103816	     -7.09508243	     -6.26163009	    -22.03584484	      0.52817064	     -0.82157451	     -6.30666769	     14.16159204	     42.21512999	    109.64930013	      2.99733396	    -16.07965919	    -11.74442083	     37.51740028	    108.41186271
      0.91000000	     -6.58921250	      0.00246746	     -8.55943047	      0.88182064	      1.03998005	     -0.32415150	     11.66994748	     -4.05077699	     -4.69307169	     57.05054796	      0.99571990	    -14.22111820	    -23.13313265	     -7.09871079	     13.96076377	     -2.09811155	     -9.50101867	      9.91002384	      0.17296254	     -0.83937426	     -6.15714261	     -7.09871079	     -6.25821376	    -22.28319562	      0.02508442	     -0.91537050	     -6.38731051	     14.21925906	     42.35790809	    109.62361992	      3.61778307	    -16.26588977	    -11.98468985	     37.82138717	    108.41223941
      0.92000000	     -6.52702136	     -0.16402300	     -8.81461918	      0.89119574	      1.04156480	     -0.32421812	     12.74853779	     -3.82718207	     -4.74603396	     57.66889302	      1.00651206	    -12.81457186	    -23.14493472	     -7.11044241	     12.91707557	     -2.13260840	     -9.64811673	      9.27966293	      0.16196067	     -0.65084890	     -6.03190681	     -7.11044241	     -6.28476880	    -22.60560179	     -0.49082532	     -1.05322925	     -6.47208860	     14.18126022	     42.62557676	    109.49358970	      4.16560064	    -16.33712803	    -12.65725214	     38.40201639	    108.40402420
      0.93000000	     -6.53630383	     -0.45560906	     -9.02129691	      0.90040149	      1.04304052	     -0.32426309	     13.80689933	     -3.37314448	     -4.79995981	     57.95905972	      1.01157642	    -12.04597228	    -23.63340452	     -7.11330329	     11.98005575	     -2.31537426	     -9.73278972	      8.71547242	      0.15211369	     -0.41550647	     -5.93583438	     -7.11330329	     -6.25176788	    -22.73993722	     -0.99588727	     -1.14086159	     -6.57645015	     14.14782319	     42.74623623	    109.46137506	      4.79487625	    -16.50580546	    -12.80495896	     38.71674461	    108.41892841
      0.94000000	     -6.54383003	     -0.69770580	     -9.17725611	      0.90953323	      1.04437338	     -0.32440107	     14.83059009	     -2.97356479	     -4.90635071	     58.04903678	      1.01314682	    -11.28241018	    -23.91664349	     -7.11678794	     11.04109206	     -2.42583266	     -9.82185902	      8.09621690	      0.14130564	     -0.20569794	     -5.74819264	     -7.11678794	     -6.24165839	    -22.90265430	     -1.48317027	     -1.27745779	     -6.70138321	     14.03299076	     42.94552936	    109.41309899	      5.44550645	    -16.62267834	    -13.03527982	     39.16077985	    108.43493131
      0.95000000	     -6.49742560	     -0.94804310	     -9.26154291	      0.91852966	      1.04563820	     -0.32465685	     15.75575664	     -2.58760270	     -5.09855638	     57.96271438	      1.01164021	    -10.35546876	    -23.73533693	     -7.12661224	     10.09384079	     -2.53607442	     -9.96092793	      7.53441406	      0.13150033	      0.03209603	     -5.43266885	     -7.12661224	     -6.37108170	    -23.02743760	     -2.04677446	     -1.41791093	     -6.78084246	     13.67412512	     43.25213853	    109.27086059	      6.08058806	    -16.65313630	    -13.54386488	     39.81904662	    108.46498458
      0.96000000	     -6.63060053	     -1.23850214	     -9.31663347	      0.92731306	      1.04654682	     -0.32483818	     16.83053720	     -2.06339752	     -5.28235331	     57.65530588	      1.00627492	     -9.86240546	    -23.95412910	     -7.12886295	      9.40157087	     -2.73475934	    -10.07609652	      7.06378609	      0.12328633	      0.19138738	     -5.29594396	     -7.12886295	     -6.26483670	    -23.06025187	     -2.57178977	     -1.49301657	     -6.90784048	     13.57493784	     43.32168906	    109.24362007	      6.74903426	    -16.78036767	    -13.59016137	     40.21715945	    108.50248392
      0.97000000	     -6.71385607	     -1.38731549	     -9.33452091	      0.93578577	      1.04735909	     -0.32517394	     17.89822840	     -1.73059390	     -5.47595371	     57.24430761	      0.99910165	     -9.66626210	    -24.01642685	     -7.12935342	      8.82178999	     -2.77750450	    -10.29804809	      6.83442633	      0.11928324	      0.30148558	     -5.29439862	     -7.12935342	     -6.28299039	    -23.22737592	     -3.14015623	     -1.48742677	     -7.02195798	     13.51429859	     43.33661953	    109.23526280	      7.54484678	    -16.94435559	    -13.59796879	     40.54099018	    108.52887125
      0.98000000	     -6.67618859	     -1.76262283	     -9.29260859	      0.94474670	      1.04828637	     -0.32540457	     18.57543658	     -1.14163586	     -5.79434249	     56.43607862	      0.98499539	     -8.44999400	    -23.95806096	     -7.13754893	      7.83535405	     -3.02552300	    -10.23992217	      6.18773951	      0.10799643	      0.76837930	     -4.54358052	     -7.13754893	     -6.44755579	    -23.12149096	     -3.66529886	     -1.68902821	     -7.07119219	     12.88817394	     43.68487158	    109.14943723	      8.09160818	    -16.94048335	    -13.79045727	     41.44819845	    108.62431836
      0.99000000	     -6.78705321	     -1.83130566	     -9.30880631	      0.95307022	      1.04874472	     -0.32576400	     19.64691529	     -0.87402823	     -5.97504576	     55.77968125	      0.97353909	     -8.25840508	    -23.99028020	     -7.13804259	      7.32026776	     -2.99107724	    -10.48322677	      5.98603929	      0.10447609	      0.87432265	     -4.54312094	     -7.13804259	     -6.43984388	    -23.30648148	     -4.18755688	     -1.64173903	     -7.19234585	     12.82895166	     43.68777945	    109.14410517	      8.88915588	    -17.07114789	    -13.76985573	     41.77324194	    108.65483991
